<svg xmlns="http://www.w3.org/2000/svg" width="720" height="190" viewBox="0 0 720 190" role="img" aria-label="TeoMaks GmbH Logo">
  <defs>
    <linearGradient id="steel" x1="0" x2="1">
      <stop offset="0" stop-color="#ffffff"/>
      <stop offset="0.48" stop-color="#d7dde6"/>
      <stop offset="1" stop-color="#7f8794"/>
    </linearGradient>
    <linearGradient id="blue" x1="0" x2="1">
      <stop offset="0" stop-color="#5f86bf"/>
      <stop offset="1" stop-color="#1f3d69"/>
    </linearGradient>
  </defs>
  <g fill="none" stroke="url(#blue)" stroke-width="11" stroke-linecap="round">
    <path d="M107 35a62 62 0 1 0 0 120"/>
    <path d="M54 94c24-39 71-62 127-54"/>
    <path d="M52 108c33 37 78 51 129 37"/>
  </g>
  <g transform="translate(55 37)" fill="url(#steel)">
    <rect x="47" y="0" width="36" height="34" rx="4"/>
    <rect x="42" y="35" width="47" height="18" rx="3"/>
    <path d="M54 54h23l-6 70-11 16-10-16z"/>
    <path d="M58 62l18 16M55 83l18 16M52 104l15 14" stroke="#18365f" stroke-width="6" stroke-linecap="round"/>
  </g>
  <text x="184" y="94" font-family="Arial Black, Arial, sans-serif" font-size="72" font-style="italic" font-weight="900" fill="url(#steel)" letter-spacing="-3">TEOMAKS</text>
  <text x="574" y="118" font-family="Arial, sans-serif" font-size="34" font-weight="800" fill="#ffffff">GmbH</text>
  <line x1="184" y1="127" x2="632" y2="127" stroke="#5f86bf" stroke-width="4" stroke-linecap="round"/>
  <text x="184" y="164" font-family="Arial, sans-serif" font-size="22" font-weight="800" fill="#ffffff" letter-spacing="3.6">INDUSTRIAL SERVICE · CNC · MAINTENANCE</text>
</svg>